<svg xmlns="http://www.w3.org/2000/svg" xmlns:xlink="http://www.w3.org/1999/xlink" width="500" zoomAndPan="magnify" viewBox="0 0 375 374.999991" height="500" preserveAspectRatio="xMidYMid meet" version="1.0"><defs><g/><clipPath id="a6390592d3"><path d="M 52 182 L 111 182 L 111 192 L 52 192 Z M 52 182 " clip-rule="nonzero"/></clipPath><clipPath id="2a6a9041a8"><path d="M 63 160 L 111 160 L 111 170 L 63 170 Z M 63 160 " clip-rule="nonzero"/></clipPath><clipPath id="cf610ba89d"><path d="M 88 171 L 111 171 L 111 181 L 88 181 Z M 88 171 " clip-rule="nonzero"/></clipPath><clipPath id="75e6331834"><path d="M 37.5 182 L 48 182 L 48 192 L 37.5 192 Z M 37.5 182 " clip-rule="nonzero"/></clipPath><clipPath id="81ae163e4d"><path d="M 65 193 L 111 193 L 111 203 L 65 203 Z M 65 193 " clip-rule="nonzero"/></clipPath><clipPath id="e5d10239f0"><path d="M 70 205 L 111 205 L 111 215 L 70 215 Z M 70 205 " clip-rule="nonzero"/></clipPath></defs><g clip-path="url(#a6390592d3)"><path fill="#0c4160" d="M 136.308594 182.835938 L 89.03125 182.835938 L 87.011719 186.328125 L 82.335938 186.328125 L 80.316406 182.835938 C 78.578125 182.835938 56.765625 182.835938 55.023438 182.835938 L 52.414062 187.359375 L 55.023438 191.882812 C 56.765625 191.882812 78.578125 191.882812 80.316406 191.882812 L 82.335938 188.390625 L 87.011719 188.390625 L 89.03125 191.882812 L 136.308594 191.882812 C 136.828125 188.894531 136.828125 185.835938 136.308594 182.835938 Z M 136.308594 182.835938 " fill-opacity="1" fill-rule="nonzero"/></g><g clip-path="url(#2a6a9041a8)"><path fill="#0c4160" d="M 71.398438 169.648438 L 73.417969 166.15625 L 78.09375 166.15625 L 80.113281 169.648438 L 129.953125 169.648438 C 120.585938 159.085938 110.082031 160.59375 97.410156 160.59375 L 80.113281 160.59375 L 78.09375 164.085938 L 73.417969 164.085938 L 71.398438 160.59375 L 66.175781 160.59375 L 63.566406 165.117188 L 66.175781 169.636719 L 71.398438 169.636719 Z M 71.398438 169.648438 " fill-opacity="1" fill-rule="nonzero"/></g><g clip-path="url(#cf610ba89d)"><path fill="#0c4160" d="M 102.625 175.210938 L 97.949219 175.210938 L 95.929688 171.71875 L 90.707031 171.71875 L 88.097656 176.242188 L 90.707031 180.765625 L 95.929688 180.765625 L 97.949219 177.273438 L 102.625 177.273438 L 104.644531 180.765625 L 135.867188 180.765625 C 135.023438 177.460938 133.5625 174.402344 131.613281 171.710938 L 104.644531 171.710938 Z M 102.625 175.210938 " fill-opacity="1" fill-rule="nonzero"/></g><g clip-path="url(#75e6331834)"><path fill="#0c4160" d="M 40.109375 182.835938 L 37.5 187.359375 L 40.109375 191.890625 L 45.34375 191.890625 L 47.953125 187.359375 L 45.34375 182.835938 Z M 40.109375 182.835938 " fill-opacity="1" fill-rule="nonzero"/></g><path fill="#0c4160" d="M 73.183594 176.242188 L 75.796875 180.765625 L 81.027344 180.765625 L 83.636719 176.242188 L 81.027344 171.71875 L 75.796875 171.71875 Z M 73.183594 176.242188 " fill-opacity="1" fill-rule="nonzero"/><path fill="#0c4160" d="M 57.957031 205.070312 L 55.335938 209.601562 L 57.957031 214.125 L 63.179688 214.125 L 65.792969 209.601562 L 63.179688 205.070312 Z M 57.957031 205.070312 " fill-opacity="1" fill-rule="nonzero"/><g clip-path="url(#81ae163e4d)"><path fill="#0c4160" d="M 80.316406 197.445312 L 75.644531 197.445312 L 73.625 193.953125 L 68.402344 193.953125 L 65.792969 198.476562 L 68.402344 203 L 73.625 203 L 75.644531 199.507812 L 80.316406 199.507812 L 82.335938 203 L 131.605469 203 C 133.554688 200.308594 135.015625 197.246094 135.859375 193.945312 C 119.5 193.945312 98.683594 193.945312 82.328125 193.945312 Z M 80.316406 197.445312 " fill-opacity="1" fill-rule="nonzero"/></g><g clip-path="url(#e5d10239f0)"><path fill="#0c4160" d="M 93.707031 208.570312 L 89.03125 208.570312 L 87.011719 205.082031 C 82.300781 205.082031 77.582031 205.082031 72.863281 205.082031 L 70.25 209.601562 L 72.863281 214.125 C 77.582031 214.125 82.292969 214.125 87.011719 214.125 L 89.03125 210.632812 L 93.707031 210.632812 L 95.722656 214.125 C 109.101562 214.125 120.34375 215.910156 129.953125 205.070312 L 95.722656 205.070312 Z M 93.707031 208.570312 " fill-opacity="1" fill-rule="nonzero"/></g><g fill="#68869a" fill-opacity="1"><g transform="translate(123.951046, 198.284898)"><g><path d="M 7.109375 0 L 2.171875 0 L 2.171875 -24.390625 L 7.109375 -24.390625 Z M 7.109375 0 "/></g></g></g><g fill="#68869a" fill-opacity="1"><g transform="translate(140.098029, 198.284898)"><g><path d="M 19.015625 0 L 14.09375 0 L 6.890625 -16 L 6.890625 0 L 1.953125 0 L 1.953125 -24.390625 L 6.890625 -24.390625 L 14.109375 -8.375 L 14.109375 -24.390625 L 19.015625 -24.390625 Z M 19.015625 0 "/></g></g></g><g fill="#68869a" fill-opacity="1"><g transform="translate(167.972916, 198.284898)"><g><path d="M 17.765625 -20.296875 L 11.734375 -20.296875 L 11.734375 0 L 6.78125 0 L 6.78125 -20.296875 L 0.859375 -20.296875 L 0.859375 -24.390625 L 17.765625 -24.390625 Z M 17.765625 -20.296875 "/></g></g></g><g fill="#68869a" fill-opacity="1"><g transform="translate(193.468715, 198.284898)"><g><path d="M 14.5625 -10.5625 L 6.890625 -10.5625 L 6.890625 -4.09375 L 15.96875 -4.09375 L 15.96875 0 L 1.953125 0 L 1.953125 -24.390625 L 15.9375 -24.390625 L 15.9375 -20.296875 L 6.890625 -20.296875 L 6.890625 -14.53125 L 14.5625 -14.53125 Z M 14.5625 -10.5625 "/></g></g></g><g fill="#68869a" fill-opacity="1"><g transform="translate(217.171819, 198.284898)"><g><path d="M 9.34375 -8.90625 L 6.90625 -8.90625 L 6.90625 0 L 1.984375 0 L 1.984375 -24.390625 L 9.828125 -24.390625 C 12.296875 -24.390625 14.203125 -23.75 15.546875 -22.46875 C 16.898438 -21.195312 17.578125 -19.378906 17.578125 -17.015625 C 17.578125 -13.773438 16.398438 -11.507812 14.046875 -10.21875 L 18.3125 -0.234375 L 18.3125 0 L 13.015625 0 Z M 6.90625 -13.015625 L 9.703125 -13.015625 C 10.679688 -13.015625 11.414062 -13.34375 11.90625 -14 C 12.40625 -14.65625 12.65625 -15.53125 12.65625 -16.625 C 12.65625 -19.070312 11.695312 -20.296875 9.78125 -20.296875 L 6.90625 -20.296875 Z M 6.90625 -13.015625 "/></g></g></g><g fill="#0c4160" fill-opacity="1"><g transform="translate(243.036976, 198.284898)"><g><path d="M 6.890625 -4.09375 L 15.53125 -4.09375 L 15.53125 0 L 1.953125 0 L 1.953125 -24.390625 L 6.890625 -24.390625 Z M 6.890625 -4.09375 "/></g></g></g><g fill="#0c4160" fill-opacity="1"><g transform="translate(266.321227, 198.284898)"><g><path d="M 7.109375 0 L 2.171875 0 L 2.171875 -24.390625 L 7.109375 -24.390625 Z M 7.109375 0 "/></g></g></g><g fill="#0c4160" fill-opacity="1"><g transform="translate(282.468209, 198.284898)"><g><path d="M 19.015625 0 L 14.09375 0 L 6.890625 -16 L 6.890625 0 L 1.953125 0 L 1.953125 -24.390625 L 6.890625 -24.390625 L 14.109375 -8.375 L 14.109375 -24.390625 L 19.015625 -24.390625 Z M 19.015625 0 "/></g></g></g><g fill="#0c4160" fill-opacity="1"><g transform="translate(310.343097, 198.284898)"><g><path d="M 8.828125 -9.421875 L 6.890625 -6.96875 L 6.890625 0 L 1.953125 0 L 1.953125 -24.390625 L 6.890625 -24.390625 L 6.890625 -13.75 L 8.4375 -16.390625 L 12.984375 -24.390625 L 19.015625 -24.390625 L 12.03125 -13.671875 L 19.140625 0 L 13.28125 0 Z M 8.828125 -9.421875 "/></g></g></g></svg>