<svg xmlns="http://www.w3.org/2000/svg" viewBox="0 0 325.67 100.76"><defs><style>.cls-1{fill:#7360f2;}.cls-2{fill:none;stroke:#7360f2;stroke-linecap:round;stroke-linejoin:round;stroke-width:0.84px;}</style></defs><title>viber-logo</title><g id="Layer_2" data-name="Layer 2"><g id="Layer_1-2" data-name="Layer 1"><g id="Logos"><path class="cls-1" d="M84.9,9.83C82.4,7.51,72.28.17,49.74.07c0,0-26.59-1.62-39.64,10.28C2.87,17.58.34,28.13.06,41.21s-.61,37.6,23,44.25V95.62s0,4.12,2.56,4.94c3.26,1,5.18-2.1,8.33-5.46,1.71-1.86,4.09-4.57,5.86-6.65a90.94,90.94,0,0,0,30-2.2c3.26-1.07,21.74-3.42,24.76-28C97.8,33,93.2,17,84.9,9.83Zm2.74,46.66C85.08,77,70.11,78.24,67.37,79.12a83.59,83.59,0,0,1-25.83,2.23S31.29,93.54,28.09,96.9a1.74,1.74,0,0,1-1.46.61c-.55-.15-.7-.79-.7-1.74V78.91c-20-5.58-18.85-26.44-18.6-37.36s2.29-19.88,8.39-25.92C26.65,5.72,49.25,7.18,49.25,7.18c19.06,0,28.21,5.82,30.31,7.75C86.67,21,90.24,35.36,87.65,56.49Z"/><path class="cls-2" d="M59,40.63a7.29,7.29,0,0,0-7.62-7.87"/><path class="cls-2" d="M65.54,42.74a16,16,0,0,0-4.12-11.68,17.23,17.23,0,0,0-11.83-5.12"/><path class="cls-2" d="M72.24,45.45A25.77,25.77,0,0,0,65,26.36a24.64,24.64,0,0,0-17.81-7"/><path class="cls-1" d="M51.66,57.71a3.48,3.48,0,0,0,2.74-1L56.3,54.3a4.09,4.09,0,0,1,5.21-.7,53.16,53.16,0,0,1,4.7,3c1.43,1.07,4.33,3.48,4.33,3.51a3.57,3.57,0,0,1,.76,4.7h0a19.64,19.64,0,0,1-3.9,4.82h0a7.78,7.78,0,0,1-4,1.92,1.71,1.71,0,0,1-.58,0,5.34,5.34,0,0,1-1.68-.24h0a59.5,59.5,0,0,1-10.92-5.06,63.86,63.86,0,0,1-9.15-6.1A48.1,48.1,0,0,1,37,56.52h-.15a54.14,54.14,0,0,1-3.66-4.15A66.51,66.51,0,0,1,27,43.23a57.7,57.7,0,0,1-5-10.92h0a5.55,5.55,0,0,1-.27-1.71,3.05,3.05,0,0,1,0-.58,7.59,7.59,0,0,1,1.92-4h0A19.79,19.79,0,0,1,28,21.39h0a3.6,3.6,0,0,1,4.73.76s2.44,3,3.48,4.33a50.74,50.74,0,0,1,3,4.7,4.18,4.18,0,0,1-.73,5.25l-2.38,1.86a3.54,3.54,0,0,0-1,2.78A24.67,24.67,0,0,0,51.66,57.71Z"/></g><path class="cls-1" d="M138.24,72.41l-19.4-48.34a10,10,0,0,1-.61-2,10.22,10.22,0,0,1-.21-2.17,6.8,6.8,0,0,1,2.13-5.12,7.59,7.59,0,0,1,5.37-2,5.43,5.43,0,0,1,3.87,1.43A12.81,12.81,0,0,1,132.17,19l13.17,35.56,12.72-35a12.5,12.5,0,0,1,2.87-5.25,6.1,6.1,0,0,1,4.3-1.49,7.23,7.23,0,0,1,5.15,1.8,6.37,6.37,0,0,1,1.89,4.85,14.18,14.18,0,0,1-.24,2.5,18,18,0,0,1-.73,2.5L152.51,71.86a11.47,11.47,0,0,1-3,4.6,6.71,6.71,0,0,1-4.36,1.37A6.28,6.28,0,0,1,141,76.59,10.19,10.19,0,0,1,138.24,72.41Z"/><path class="cls-1" d="M189.38,68.2a13.24,13.24,0,0,1-1.62,7.29,5.52,5.52,0,0,1-4.94,2.35,5.79,5.79,0,0,1-5.06-2.38,12.84,12.84,0,0,1-1.65-7.26V41.52a12.84,12.84,0,0,1,1.65-7.26,5.67,5.67,0,0,1,5.06-2.35,5.52,5.52,0,0,1,4.94,2.35,13.11,13.11,0,0,1,1.62,7.26Z"/><path class="cls-1" d="M209.48,32.28a15.77,15.77,0,0,1,5.09-3,17.38,17.38,0,0,1,6.1-1,19.61,19.61,0,0,1,15.4,7.23,26.65,26.65,0,0,1,6.28,18.08A25.28,25.28,0,0,1,235.92,71a19.67,19.67,0,0,1-15.25,7.26A16.35,16.35,0,0,1,214.23,77a13.33,13.33,0,0,1-5-3.57,9.79,9.79,0,0,1-3,3.42A6.43,6.43,0,0,1,202.43,78a6.1,6.1,0,0,1-5.34-2.53,14.09,14.09,0,0,1-1.71-7.75V23a14.27,14.27,0,0,1,1.71-7.78,6.86,6.86,0,0,1,10.64,0A13.69,13.69,0,0,1,209.51,23Zm-1.1,21a14.42,14.42,0,0,0,2.84,9.33,9.15,9.15,0,0,0,14.58,0,14.46,14.46,0,0,0,2.87-9.15,14.79,14.79,0,0,0-2.84-9.39,9.15,9.15,0,0,0-14.61,0,14.82,14.82,0,0,0-2.84,9.21Z"/><path class="cls-1" d="M258.12,57.16a9.79,9.79,0,0,0,4.06,6.1,11.53,11.53,0,0,0,7.41,2.23,21.13,21.13,0,0,0,8.84-2.29,22.57,22.57,0,0,1,6.1-2.29,5.46,5.46,0,0,1,4.06,1.52,5.12,5.12,0,0,1,1.59,3.9c0,3-2.1,5.76-6.34,8.17a29.22,29.22,0,0,1-14.91,3.66,23.54,23.54,0,0,1-17.44-7.11,24.4,24.4,0,0,1-7-17.84,25,25,0,0,1,6.8-17.93,23.42,23.42,0,0,1,33.12-.67l.22.21a22.78,22.78,0,0,1,6.59,16.53,5.7,5.7,0,0,1-1.43,4.45,8.84,8.84,0,0,1-5.55,1.25Zm-.58-8.23h20.77a10.8,10.8,0,0,0-3-7.11,9.76,9.76,0,0,0-6.86-2.62,10.67,10.67,0,0,0-7,2.47,13.2,13.2,0,0,0-3.81,7.17Z"/><path class="cls-1" d="M295,67.5V39.14a13.69,13.69,0,0,1,1.74-7.72,5.92,5.92,0,0,1,5.31-2.5,6.65,6.65,0,0,1,3.78,1.1,9.52,9.52,0,0,1,3,3.39,16.31,16.31,0,0,1,4.64-3.54,11,11,0,0,1,4.94-1.22,7,7,0,0,1,5.06,2.07,6.71,6.71,0,0,1,2.1,4.94c0,2.81-2.59,5.18-7.78,7.08-1.86.67-3.26,1.22-4.18,1.65a7.59,7.59,0,0,0-3.54,2.84,12.2,12.2,0,0,0-.88,5.61V67.5a13.78,13.78,0,0,1-1.74,7.75,6.1,6.1,0,0,1-5.34,2.53,5.89,5.89,0,0,1-5.31-2.53A13.78,13.78,0,0,1,295,67.5Z"/><path class="cls-1" d="M175.69,20.11a7.07,7.07,0,0,1,2.2-5.21,7.23,7.23,0,0,1,5.25-2.17,7,7,0,0,1,5.15,2.17,7.17,7.17,0,0,1,2.17,5.21,7.29,7.29,0,0,1-7.26,7.32h-.06a7.08,7.08,0,0,1-5.28-2.13A7,7,0,0,1,175.69,20.11Z"/></g></g></svg>