<svg xmlns="http://www.w3.org/2000/svg" xmlns:xlink="http://www.w3.org/1999/xlink" width="152" zoomAndPan="magnify" viewBox="0 0 114 30.000001" height="40" preserveAspectRatio="xMidYMid meet" version="1.0"><defs><g/><clipPath id="3f217131b9"><path d="M 11 12 L 30.871094 12 L 30.871094 16 L 11 16 Z M 11 12 " clip-rule="nonzero"/></clipPath><clipPath id="00cc860ac7"><path d="M 14 5.082031 L 30.871094 5.082031 L 30.871094 9 L 14 9 Z M 14 5.082031 " clip-rule="nonzero"/></clipPath><clipPath id="0ce523d479"><path d="M 22 9 L 30.871094 9 L 30.871094 13 L 22 13 Z M 22 9 " clip-rule="nonzero"/></clipPath><clipPath id="1a547bd152"><path d="M 6.195312 12 L 10 12 L 10 16 L 6.195312 16 Z M 6.195312 12 " clip-rule="nonzero"/></clipPath><clipPath id="3065e3b8c0"><path d="M 12 20 L 16 20 L 16 23.953125 L 12 23.953125 Z M 12 20 " clip-rule="nonzero"/></clipPath><clipPath id="a934512884"><path d="M 15 16 L 30.871094 16 L 30.871094 20 L 15 20 Z M 15 16 " clip-rule="nonzero"/></clipPath><clipPath id="46be23ce6d"><path d="M 17 20 L 30.871094 20 L 30.871094 23.953125 L 17 23.953125 Z M 17 20 " clip-rule="nonzero"/></clipPath></defs><g clip-path="url(#3f217131b9)"><path fill="#0c4160" d="M 38.992188 12.964844 L 23.300781 12.964844 L 22.632812 14.121094 L 21.082031 14.121094 L 20.410156 12.964844 C 19.832031 12.964844 12.59375 12.964844 12.015625 12.964844 L 11.148438 14.464844 L 12.015625 15.964844 C 12.59375 15.964844 19.832031 15.964844 20.410156 15.964844 L 21.082031 14.808594 L 22.632812 14.808594 L 23.300781 15.964844 L 38.992188 15.964844 C 39.167969 14.972656 39.167969 13.957031 38.992188 12.964844 Z M 38.992188 12.964844 " fill-opacity="1" fill-rule="nonzero"/></g><g clip-path="url(#00cc860ac7)"><path fill="#0c4160" d="M 17.449219 8.585938 L 18.121094 7.425781 L 19.671875 7.425781 L 20.34375 8.585938 L 36.886719 8.585938 C 33.777344 5.082031 30.289062 5.582031 26.082031 5.582031 L 20.34375 5.582031 L 19.671875 6.738281 L 18.121094 6.738281 L 17.449219 5.582031 L 15.71875 5.582031 L 14.851562 7.082031 L 15.71875 8.582031 L 17.449219 8.582031 Z M 17.449219 8.585938 " fill-opacity="1" fill-rule="nonzero"/></g><g clip-path="url(#0ce523d479)"><path fill="#0c4160" d="M 27.8125 10.433594 L 26.261719 10.433594 L 25.59375 9.273438 L 23.859375 9.273438 L 22.992188 10.773438 L 23.859375 12.277344 L 25.59375 12.277344 L 26.261719 11.117188 L 27.8125 11.117188 L 28.484375 12.277344 L 38.847656 12.277344 C 38.566406 11.179688 38.082031 10.164062 37.4375 9.269531 L 28.484375 9.269531 Z M 27.8125 10.433594 " fill-opacity="1" fill-rule="nonzero"/></g><g clip-path="url(#1a547bd152)"><path fill="#0c4160" d="M 7.066406 12.964844 L 6.199219 14.464844 L 7.066406 15.96875 L 8.800781 15.96875 L 9.667969 14.464844 L 8.800781 12.964844 Z M 7.066406 12.964844 " fill-opacity="1" fill-rule="nonzero"/></g><path fill="#0c4160" d="M 18.042969 10.773438 L 18.910156 12.277344 L 20.644531 12.277344 L 21.511719 10.773438 L 20.644531 9.273438 L 18.910156 9.273438 Z M 18.042969 10.773438 " fill-opacity="1" fill-rule="nonzero"/><g clip-path="url(#3065e3b8c0)"><path fill="#0c4160" d="M 12.988281 20.34375 L 12.121094 21.847656 L 12.988281 23.347656 L 14.722656 23.347656 L 15.589844 21.847656 L 14.722656 20.34375 Z M 12.988281 20.34375 " fill-opacity="1" fill-rule="nonzero"/></g><g clip-path="url(#a934512884)"><path fill="#0c4160" d="M 20.410156 17.8125 L 18.859375 17.8125 L 18.1875 16.652344 L 16.457031 16.652344 L 15.589844 18.15625 L 16.457031 19.65625 L 18.1875 19.65625 L 18.859375 18.496094 L 20.410156 18.496094 L 21.082031 19.65625 L 37.433594 19.65625 C 38.078125 18.761719 38.566406 17.746094 38.84375 16.652344 C 33.414062 16.652344 26.507812 16.652344 21.078125 16.652344 Z M 20.410156 17.8125 " fill-opacity="1" fill-rule="nonzero"/></g><g clip-path="url(#46be23ce6d)"><path fill="#0c4160" d="M 24.855469 21.503906 L 23.300781 21.503906 L 22.632812 20.347656 C 21.070312 20.347656 19.503906 20.347656 17.9375 20.347656 L 17.070312 21.847656 L 17.9375 23.347656 C 19.503906 23.347656 21.066406 23.347656 22.632812 23.347656 L 23.300781 22.191406 L 24.855469 22.191406 L 25.523438 23.347656 C 29.964844 23.347656 33.695312 23.941406 36.886719 20.34375 L 25.523438 20.34375 Z M 24.855469 21.503906 " fill-opacity="1" fill-rule="nonzero"/></g><g fill="#68869a" fill-opacity="1"><g transform="translate(34.900885, 18.097422)"><g><path d="M 2.359375 0 L 0.71875 0 L 0.71875 -8.09375 L 2.359375 -8.09375 Z M 2.359375 0 "/></g></g></g><g fill="#68869a" fill-opacity="1"><g transform="translate(40.262728, 18.097422)"><g><path d="M 6.3125 0 L 4.671875 0 L 2.28125 -5.3125 L 2.28125 0 L 0.65625 0 L 0.65625 -8.09375 L 2.28125 -8.09375 L 4.6875 -2.78125 L 4.6875 -8.09375 L 6.3125 -8.09375 Z M 6.3125 0 "/></g></g></g><g fill="#68869a" fill-opacity="1"><g transform="translate(49.518993, 18.097422)"><g><path d="M 5.890625 -6.734375 L 3.890625 -6.734375 L 3.890625 0 L 2.25 0 L 2.25 -6.734375 L 0.28125 -6.734375 L 0.28125 -8.09375 L 5.890625 -8.09375 Z M 5.890625 -6.734375 "/></g></g></g><g fill="#68869a" fill-opacity="1"><g transform="translate(57.985247, 18.097422)"><g><path d="M 4.828125 -3.5 L 2.28125 -3.5 L 2.28125 -1.359375 L 5.296875 -1.359375 L 5.296875 0 L 0.65625 0 L 0.65625 -8.09375 L 5.296875 -8.09375 L 5.296875 -6.734375 L 2.28125 -6.734375 L 2.28125 -4.828125 L 4.828125 -4.828125 Z M 4.828125 -3.5 "/></g></g></g><g fill="#68869a" fill-opacity="1"><g transform="translate(65.85621, 18.097422)"><g><path d="M 3.109375 -2.953125 L 2.296875 -2.953125 L 2.296875 0 L 0.65625 0 L 0.65625 -8.09375 L 3.265625 -8.09375 C 4.085938 -8.09375 4.71875 -7.878906 5.15625 -7.453125 C 5.601562 -7.035156 5.828125 -6.4375 5.828125 -5.65625 C 5.828125 -4.570312 5.4375 -3.816406 4.65625 -3.390625 L 6.078125 -0.078125 L 6.078125 0 L 4.328125 0 Z M 2.296875 -4.328125 L 3.21875 -4.328125 C 3.539062 -4.328125 3.785156 -4.429688 3.953125 -4.640625 C 4.117188 -4.859375 4.203125 -5.148438 4.203125 -5.515625 C 4.203125 -6.328125 3.882812 -6.734375 3.25 -6.734375 L 2.296875 -6.734375 Z M 2.296875 -4.328125 "/></g></g></g><g fill="#0c4160" fill-opacity="1"><g transform="translate(74.445115, 18.097422)"><g><path d="M 2.28125 -1.359375 L 5.15625 -1.359375 L 5.15625 0 L 0.65625 0 L 0.65625 -8.09375 L 2.28125 -8.09375 Z M 2.28125 -1.359375 "/></g></g></g><g fill="#0c4160" fill-opacity="1"><g transform="translate(82.176992, 18.097422)"><g><path d="M 2.359375 0 L 0.71875 0 L 0.71875 -8.09375 L 2.359375 -8.09375 Z M 2.359375 0 "/></g></g></g><g fill="#0c4160" fill-opacity="1"><g transform="translate(87.538834, 18.097422)"><g><path d="M 6.3125 0 L 4.671875 0 L 2.28125 -5.3125 L 2.28125 0 L 0.65625 0 L 0.65625 -8.09375 L 2.28125 -8.09375 L 4.6875 -2.78125 L 4.6875 -8.09375 L 6.3125 -8.09375 Z M 6.3125 0 "/></g></g></g><g fill="#0c4160" fill-opacity="1"><g transform="translate(96.7951, 18.097422)"><g><path d="M 2.9375 -3.125 L 2.28125 -2.3125 L 2.28125 0 L 0.65625 0 L 0.65625 -8.09375 L 2.28125 -8.09375 L 2.28125 -4.5625 L 2.796875 -5.4375 L 4.3125 -8.09375 L 6.3125 -8.09375 L 4 -4.53125 L 6.359375 0 L 4.40625 0 Z M 2.9375 -3.125 "/></g></g></g></svg>