<svg xmlns="http://www.w3.org/2000/svg" xmlns:xlink="http://www.w3.org/1999/xlink" width="152" zoomAndPan="magnify" viewBox="0 0 114 60" height="80" preserveAspectRatio="xMidYMid meet" version="1.0"><defs><g/><clipPath id="560f313bef"><path d="M 11 29 L 32.25 29 L 32.25 33 L 11 33 Z M 11 29 " clip-rule="nonzero"/></clipPath><clipPath id="349af64934"><path d="M 15 21 L 32.25 21 L 32.25 25 L 15 25 Z M 15 21 " clip-rule="nonzero"/></clipPath><clipPath id="54958134e8"><path d="M 24 25 L 32.25 25 L 32.25 29 L 24 29 Z M 24 25 " clip-rule="nonzero"/></clipPath><clipPath id="15021efad1"><path d="M 6.75 29 L 11 29 L 11 33 L 6.75 33 Z M 6.75 29 " clip-rule="nonzero"/></clipPath><clipPath id="a789fae9b7"><path d="M 16 32 L 32.25 32 L 32.25 37 L 16 37 Z M 16 32 " clip-rule="nonzero"/></clipPath><clipPath id="9cd476ca69"><path d="M 17 36 L 32.25 36 L 32.25 40 L 17 40 Z M 17 36 " clip-rule="nonzero"/></clipPath></defs><g clip-path="url(#560f313bef)"><path fill="#0c4160" d="M 40.644531 29.144531 L 24.429688 29.144531 L 23.738281 30.34375 L 22.132812 30.34375 L 21.441406 29.144531 C 20.84375 29.144531 13.363281 29.144531 12.765625 29.144531 L 11.871094 30.695312 L 12.765625 32.246094 C 13.363281 32.246094 20.84375 32.246094 21.441406 32.246094 L 22.132812 31.050781 L 23.738281 31.050781 L 24.429688 32.246094 L 40.644531 32.246094 C 40.820312 31.222656 40.820312 30.171875 40.644531 29.144531 Z M 40.644531 29.144531 " fill-opacity="1" fill-rule="nonzero"/></g><g clip-path="url(#349af64934)"><path fill="#0c4160" d="M 18.382812 24.621094 L 19.074219 23.425781 L 20.679688 23.425781 L 21.371094 24.621094 L 38.464844 24.621094 C 35.25 21 31.648438 21.515625 27.304688 21.515625 L 21.371094 21.515625 L 20.679688 22.714844 L 19.074219 22.714844 L 18.382812 21.515625 L 16.589844 21.515625 L 15.695312 23.066406 L 16.589844 24.621094 Z M 18.382812 24.621094 " fill-opacity="1" fill-rule="nonzero"/></g><g clip-path="url(#54958134e8)"><path fill="#0c4160" d="M 29.089844 26.53125 L 27.488281 26.53125 L 26.796875 25.332031 L 25.003906 25.332031 L 24.109375 26.882812 L 25.003906 28.433594 L 26.796875 28.433594 L 27.488281 27.238281 L 29.089844 27.238281 L 29.785156 28.433594 L 40.492188 28.433594 C 40.203125 27.300781 39.703125 26.253906 39.035156 25.328125 L 29.785156 25.328125 Z M 29.089844 26.53125 " fill-opacity="1" fill-rule="nonzero"/></g><g clip-path="url(#15021efad1)"><path fill="#0c4160" d="M 7.652344 29.144531 L 6.757812 30.695312 L 7.652344 32.25 L 9.445312 32.25 L 10.339844 30.695312 L 9.445312 29.144531 Z M 7.652344 29.144531 " fill-opacity="1" fill-rule="nonzero"/></g><path fill="#0c4160" d="M 18.996094 26.882812 L 19.890625 28.433594 L 21.683594 28.433594 L 22.578125 26.882812 L 21.683594 25.332031 L 19.890625 25.332031 Z M 18.996094 26.882812 " fill-opacity="1" fill-rule="nonzero"/><path fill="#0c4160" d="M 13.773438 36.769531 L 12.875 38.324219 L 13.773438 39.875 L 15.5625 39.875 L 16.460938 38.324219 L 15.5625 36.769531 Z M 13.773438 36.769531 " fill-opacity="1" fill-rule="nonzero"/><g clip-path="url(#a789fae9b7)"><path fill="#0c4160" d="M 21.441406 34.15625 L 19.835938 34.15625 L 19.144531 32.957031 L 17.355469 32.957031 L 16.460938 34.507812 L 17.355469 36.058594 L 19.144531 36.058594 L 19.835938 34.863281 L 21.441406 34.863281 L 22.132812 36.058594 L 39.03125 36.058594 C 39.699219 35.136719 40.199219 34.089844 40.488281 32.957031 C 34.878906 32.957031 27.742188 32.957031 22.128906 32.957031 Z M 21.441406 34.15625 " fill-opacity="1" fill-rule="nonzero"/></g><g clip-path="url(#9cd476ca69)"><path fill="#0c4160" d="M 26.03125 37.972656 L 24.429688 37.972656 L 23.738281 36.773438 C 22.121094 36.773438 20.503906 36.773438 18.882812 36.773438 L 17.988281 38.324219 L 18.882812 39.875 C 20.503906 39.875 22.117188 39.875 23.738281 39.875 L 24.429688 38.679688 L 26.03125 38.679688 L 26.726562 39.875 C 31.3125 39.875 35.167969 40.488281 38.464844 36.769531 L 26.726562 36.769531 Z M 26.03125 37.972656 " fill-opacity="1" fill-rule="nonzero"/></g><g fill="#68869a" fill-opacity="1"><g transform="translate(36.414249, 34.450667)"><g><path d="M 2.4375 0 L 0.75 0 L 0.75 -8.375 L 2.4375 -8.375 Z M 2.4375 0 "/></g></g></g><g fill="#68869a" fill-opacity="1"><g transform="translate(41.954819, 34.450667)"><g><path d="M 6.53125 0 L 4.84375 0 L 2.359375 -5.5 L 2.359375 0 L 0.671875 0 L 0.671875 -8.375 L 2.359375 -8.375 L 4.84375 -2.875 L 4.84375 -8.375 L 6.53125 -8.375 Z M 6.53125 0 "/></g></g></g><g fill="#68869a" fill-opacity="1"><g transform="translate(51.519626, 34.450667)"><g><path d="M 6.09375 -6.96875 L 4.03125 -6.96875 L 4.03125 0 L 2.328125 0 L 2.328125 -6.96875 L 0.296875 -6.96875 L 0.296875 -8.375 L 6.09375 -8.375 Z M 6.09375 -6.96875 "/></g></g></g><g fill="#68869a" fill-opacity="1"><g transform="translate(60.268088, 34.450667)"><g><path d="M 5 -3.625 L 2.359375 -3.625 L 2.359375 -1.40625 L 5.484375 -1.40625 L 5.484375 0 L 0.671875 0 L 0.671875 -8.375 L 5.46875 -8.375 L 5.46875 -6.96875 L 2.359375 -6.96875 L 2.359375 -4.984375 L 5 -4.984375 Z M 5 -3.625 "/></g></g></g><g fill="#68869a" fill-opacity="1"><g transform="translate(68.401417, 34.450667)"><g><path d="M 3.203125 -3.0625 L 2.375 -3.0625 L 2.375 0 L 0.671875 0 L 0.671875 -8.375 L 3.375 -8.375 C 4.21875 -8.375 4.867188 -8.15625 5.328125 -7.71875 C 5.796875 -7.28125 6.03125 -6.65625 6.03125 -5.84375 C 6.03125 -4.726562 5.628906 -3.953125 4.828125 -3.515625 L 6.28125 -0.078125 L 6.28125 0 L 4.46875 0 Z M 2.375 -4.46875 L 3.328125 -4.46875 C 3.671875 -4.46875 3.925781 -4.578125 4.09375 -4.796875 C 4.257812 -5.023438 4.34375 -5.328125 4.34375 -5.703125 C 4.34375 -6.546875 4.015625 -6.96875 3.359375 -6.96875 L 2.375 -6.96875 Z M 2.375 -4.46875 "/></g></g></g><g fill="#0c4160" fill-opacity="1"><g transform="translate(77.276618, 34.450667)"><g><path d="M 2.359375 -1.40625 L 5.328125 -1.40625 L 5.328125 0 L 0.671875 0 L 0.671875 -8.375 L 2.359375 -8.375 Z M 2.359375 -1.40625 "/></g></g></g><g fill="#0c4160" fill-opacity="1"><g transform="translate(85.266224, 34.450667)"><g><path d="M 2.4375 0 L 0.75 0 L 0.75 -8.375 L 2.4375 -8.375 Z M 2.4375 0 "/></g></g></g><g fill="#0c4160" fill-opacity="1"><g transform="translate(90.806794, 34.450667)"><g><path d="M 6.53125 0 L 4.84375 0 L 2.359375 -5.5 L 2.359375 0 L 0.671875 0 L 0.671875 -8.375 L 2.359375 -8.375 L 4.84375 -2.875 L 4.84375 -8.375 L 6.53125 -8.375 Z M 6.53125 0 "/></g></g></g><g fill="#0c4160" fill-opacity="1"><g transform="translate(100.371601, 34.450667)"><g><path d="M 3.03125 -3.234375 L 2.359375 -2.390625 L 2.359375 0 L 0.671875 0 L 0.671875 -8.375 L 2.359375 -8.375 L 2.359375 -4.71875 L 2.90625 -5.625 L 4.453125 -8.375 L 6.53125 -8.375 L 4.125 -4.6875 L 6.5625 0 L 4.5625 0 Z M 3.03125 -3.234375 "/></g></g></g></svg>